/vscmnt/brussel_pixiu_data/_data_brussel/112/vsc11236/PredSimResults/SUBJ04opt3D/expIG/worker_05.mot
version=1
nRows=4
nColumns=50
inDegrees=yes
endheader
                time	         pelvis_tilt	         pelvis_list	     pelvis_rotation	           pelvis_tx	           pelvis_ty	           pelvis_tz	       hip_flexion_r	     hip_adduction_r	      hip_rotation_r	        knee_angle_r	       ankle_angle_r	         mtp_angle_r	       hip_flexion_l	     hip_adduction_l	      hip_rotation_l	        knee_angle_l	       ankle_angle_l	         mtp_angle_l	    lumbar_extension	      lumbar_bending	     lumbar_rotation	 ercspn_r/activation	 intobl_r/activation	 extobl_r/activation	    abd_r/activation	    add_r/activation	hamstrings_r/activation	bifemsh_r/activation	glut_max_r/activation	iliopsoas_r/activation	rect_fem_r/activation	  vasti_r/activation	gastroc_r/activation	 soleus_r/activation	tib_ant_r/activation	 ercspn_l/activation	 intobl_l/activation	 extobl_l/activation	    abd_l/activation	    add_l/activation	hamstrings_l/activation	bifemsh_l/activation	glut_max_l/activation	iliopsoas_l/activation	rect_fem_l/activation	  vasti_l/activation	gastroc_l/activation	 soleus_l/activation	tib_ant_l/activation	
          1.26974538	         -2.45784251	          0.50013158	          8.69116465	          1.26974538	          0.87908554	         -0.01052961	         29.98060681	         -3.58294704	        -10.51476119	        -12.36567812	          4.30640015	          0.23858120	        -13.23704844	         -0.63027526	         -7.94084890	         -8.96224200	         11.68870077	         23.91429289	        -13.36256397	         -2.85468721	         -8.23306387	          0.04571474	          0.21730134	          0.01568936	          0.01000006	          0.31125823	          0.06210737	          0.02786617	          0.05822686	          0.15183073	          0.03108106	          0.03002690	          0.01467592	          0.01766714	          0.32989684	          0.05103222	          0.01000003	          0.01000004	          0.04644556	          0.01000056	          0.02541308	          0.16216182	          0.01468058	          0.01268001	          0.01000096	          0.01000021	          0.23188108	          0.25668994	          0.01000002	
          1.28244284	         -2.53605127	          0.45982243	          8.45132349	          1.28607007	          0.87698733	         -0.01006227	         29.72259004	         -3.41872782	        -10.61494316	        -13.60386032	          4.02441180	          0.22535473	        -13.85452073	         -0.81123425	         -8.60816119	         -9.70896256	         11.21352619	         25.42804071	        -12.85239391	         -2.25154183	         -8.33371316	          0.03773021	          0.20612124	          0.01294904	          0.03655902	          0.25689350	          0.06230249	          0.02299944	          0.05632971	          0.12531174	          0.02565241	          0.04817786	          0.01211646	          0.01458145	          0.36228693	          0.04639642	          0.01000001	          0.01000011	          0.03833331	          0.01000040	          0.02097484	          0.13383848	          0.01211646	          0.02154958	          0.01000027	          0.01000010	          0.19138041	          0.24186160	          0.01000001	
          1.29514029	         -2.59956032	          0.37468229	          8.15952305	          1.30263568	          0.87515363	         -0.00949243	         29.37772888	         -3.22289707	        -10.75393396	        -14.67131324	          3.54782520	          0.21413107	        -14.34004423	         -1.05829764	         -9.30775463	        -10.74453131	         10.63885619	         26.96697028	        -12.32837729	         -1.58443995	         -8.39495251	          0.03438666	          0.17011979	          0.01068736	          0.05614899	          0.22143298	          0.06446671	          0.01898276	          0.04649131	          0.10342460	          0.02117194	          0.11875253	          0.01000029	          0.01203466	          0.39716841	          0.04932438	          0.01000001	          0.01000005	          0.03163796	          0.01000024	          0.01731194	          0.11046210	          0.01000020	          0.01778610	          0.01000043	          0.01000010	          0.15795361	          0.22504364	          0.01000002	
          1.30783774	         -2.64945052	          0.25512320	          7.82010510	          1.31926773	          0.87377290	         -0.00880616	         28.96954643	         -2.99472960	        -10.98084213	        -15.64481250	          3.12561052	          0.18916243	        -14.62015984	         -1.37355740	        -10.03894903	        -12.17090584	          9.91111196	         28.54428506	        -11.81552117	         -0.86908290	         -8.41480239	          0.04080329	          0.14040640	          0.01000006	          0.09034783	          0.20223249	          0.06635118	          0.01566758	          0.03837128	          0.08536030	          0.01747403	          0.18597595	          0.01000030	          0.01000011	          0.41818216	          0.07405516	          0.01000002	          0.01000005	          0.02611203	          0.01000033	          0.01429049	          0.09116865	          0.01000007	          0.01467967	          0.01000030	          0.01000014	          0.13036519	          0.18955653	          0.01000001	
